<svg width="168" height="182" viewBox="0 0 168 182" fill="none" xmlns="http://www.w3.org/2000/svg">
<g filter="url(#filter0_ddddd_856_15577)">
<path d="M150.982 89.6504C148.984 90.853 146.656 91.3922 144.333 91.1905C142.009 90.9889 139.809 90.0568 138.048 88.5279C136.287 86.999 135.056 84.9518 134.53 82.6798C134.004 80.4078 134.211 78.0275 135.121 75.8803C136.031 73.7331 137.597 71.9291 139.596 70.727C141.594 69.5249 143.922 68.9863 146.245 69.1886C148.568 69.3908 150.768 70.3234 152.529 71.8528C154.289 73.3821 155.521 75.4296 156.046 77.7018C156.575 79.973 156.37 82.3535 155.46 84.5007C154.549 86.6478 152.982 88.4509 150.982 89.6504Z" fill="#EBEBEB"/>
<path d="M148.662 78.9699C148.654 79.6339 148.449 80.2805 148.073 80.828C147.697 81.3756 147.168 81.7994 146.551 82.046C145.934 82.2926 145.259 82.3509 144.609 82.2135C143.959 82.0761 143.365 81.7492 142.901 81.2741C142.437 80.799 142.124 80.197 142.002 79.5442C141.88 78.8915 141.955 78.2172 142.216 77.6067C142.477 76.9962 142.914 76.4768 143.47 76.1142C144.026 75.7516 144.678 75.5621 145.342 75.5695C145.783 75.5745 146.219 75.6664 146.625 75.8401C147.031 76.0137 147.398 76.2656 147.707 76.5814C148.015 76.8972 148.258 77.2707 148.422 77.6806C148.586 78.0904 148.667 78.5285 148.662 78.9699Z" fill="white"/>
<path d="M150.997 88.2645V89.6505C149.24 90.7068 147.222 91.2528 145.172 91.2272C143.121 91.2016 141.118 90.6056 139.387 89.5058L139.406 88.1236C139.416 87.3615 139.575 86.6088 139.875 85.9083C140.175 85.2077 140.611 84.5732 141.156 84.0409C141.701 83.5086 142.346 83.0889 143.054 82.8058C143.761 82.5227 144.518 82.3818 145.28 82.3911C146.042 82.4003 146.795 82.5596 147.495 82.8597C148.196 83.1599 148.83 83.5951 149.363 84.1405C149.895 84.6859 150.315 85.3308 150.598 86.0384C150.881 86.746 151.022 87.5024 151.012 88.2645H150.997Z" fill="white"/>
<path d="M26.8318 56.7858C25.6791 57.4796 24.3558 57.8382 23.0105 57.8214C21.6652 57.8046 20.3513 57.413 19.2163 56.6906C17.8888 55.8456 16.8729 54.5909 16.3228 53.1166C15.7726 51.6424 15.7181 50.0289 16.1676 48.5209C16.617 47.0128 17.5459 45.6924 18.8134 44.7599C20.0809 43.8273 21.6179 43.3334 23.1913 43.3531C24.7648 43.3728 26.289 43.9049 27.5328 44.8689C28.7765 45.8328 29.6721 47.176 30.0837 48.6948C30.4953 50.2136 30.4005 51.8252 29.8137 53.2853C29.2269 54.7454 28.18 55.9743 26.8318 56.7858Z" fill="#EBEBEB"/>
<path d="M25.3118 49.7874C25.3072 50.2228 25.1736 50.6471 24.9279 51.0065C24.6821 51.366 24.3352 51.6445 23.9311 51.8067C23.5271 51.969 23.0839 52.0077 22.6578 51.9181C22.2317 51.8284 21.8418 51.6143 21.5374 51.303C21.2329 50.9916 21.0277 50.597 20.9477 50.169C20.8676 49.7409 20.9163 49.2988 21.0876 48.8985C21.259 48.4981 21.5452 48.1576 21.9101 47.92C22.275 47.6824 22.7022 47.5584 23.1376 47.5636C23.4264 47.5666 23.7118 47.6265 23.9775 47.7399C24.2432 47.8534 24.4839 48.0181 24.6858 48.2246C24.8878 48.4312 25.047 48.6755 25.1544 48.9437C25.2618 49.2118 25.3153 49.4985 25.3118 49.7874Z" fill="white"/>
<path d="M26.8416 55.8757V56.7858C25.6889 57.4795 24.3655 57.8382 23.0203 57.8214C21.675 57.8046 20.3611 57.413 19.2261 56.6906V55.7881C19.2377 54.7783 19.65 53.8144 20.3723 53.1085C21.0946 52.4026 22.0677 52.0126 23.0776 52.0242C24.0875 52.0358 25.0514 52.4481 25.7573 53.1704C26.4631 53.8927 26.8532 54.8658 26.8416 55.8757Z" fill="white"/>
<path d="M59.1431 57.8252H10.9219V24.835H59.1431V57.8252ZM11.3026 57.4445H58.7623V25.2157H11.3026V57.4445Z" fill="#EBEBEB"/>
<path d="M14.6923 26.96C14.6923 27.1498 14.636 27.3353 14.5306 27.4931C14.4251 27.6509 14.2753 27.7739 14.0999 27.8465C13.9246 27.9192 13.7317 27.9382 13.5455 27.9012C13.3594 27.8641 13.1884 27.7727 13.0542 27.6385C12.92 27.5043 12.8287 27.3334 12.7916 27.1472C12.7546 26.9611 12.7736 26.7682 12.8462 26.5928C12.9189 26.4175 13.0418 26.2676 13.1996 26.1622C13.3574 26.0568 13.543 26.0005 13.7327 26.0005C13.9872 26.0005 14.2313 26.1016 14.4112 26.2815C14.5912 26.4615 14.6923 26.7056 14.6923 26.96Z" fill="#A6A6A6"/>
<path d="M18.609 26.96C18.609 27.1498 18.5528 27.3353 18.4473 27.4931C18.3419 27.6509 18.192 27.7739 18.0167 27.8465C17.8414 27.9192 17.6484 27.9382 17.4623 27.9012C17.2762 27.8641 17.1052 27.7727 16.971 27.6385C16.8368 27.5043 16.7454 27.3334 16.7084 27.1472C16.6714 26.9611 16.6904 26.7682 16.763 26.5928C16.8356 26.4175 16.9586 26.2676 17.1164 26.1622C17.2742 26.0568 17.4597 26.0005 17.6495 26.0005C17.904 26.0005 18.148 26.1016 18.328 26.2815C18.5079 26.4615 18.609 26.7056 18.609 26.96Z" fill="#EBEBEB"/>
<path d="M22.5275 26.96C22.5275 27.1498 22.4712 27.3353 22.3658 27.4931C22.2603 27.6509 22.1105 27.7739 21.9352 27.8465C21.7598 27.9192 21.5669 27.9382 21.3807 27.9012C21.1946 27.8641 21.0236 27.7727 20.8894 27.6385C20.7552 27.5043 20.6639 27.3334 20.6268 27.1472C20.5898 26.9611 20.6088 26.7682 20.6814 26.5928C20.7541 26.4175 20.8771 26.2676 21.0349 26.1622C21.1926 26.0568 21.3782 26.0005 21.5679 26.0005C21.8224 26.0005 22.0665 26.1016 22.2465 26.2815C22.4264 26.4615 22.5275 26.7056 22.5275 26.96Z" fill="#FFC727"/>
<path d="M58.9528 28.6504H11.1123V29.0312H58.9528V28.6504Z" fill="#EBEBEB"/>
<path d="M40.5568 66.4817L15.4338 69.9097L17.6078 85.8421L42.7308 82.4141L40.5568 66.4817Z" fill="#EBEBEB"/>
<path d="M40.5538 66.4878C39.6704 67.5958 38.7642 68.6658 37.8884 69.7586C37.0126 70.8515 36.0759 71.91 35.1658 72.9762C34.2558 74.0423 33.262 75.1923 32.3024 76.2889L32.2148 76.3955C31.3695 77.3627 30.5191 78.3311 29.6637 79.3008L29.538 79.4379L29.3819 79.3389C28.3005 78.6345 27.2267 77.93 26.1491 77.218L26.0349 77.1457C24.8164 76.3422 23.5979 75.535 22.3833 74.7125C21.1686 73.89 20.0605 73.1437 18.903 72.3479C17.7454 71.5521 16.5917 70.7448 15.4456 69.9109C16.6374 70.5963 17.8178 71.3236 18.9982 72.0319C20.1786 72.7401 21.3628 73.4788 22.5432 74.2175C23.853 75.0324 25.1629 75.8612 26.4728 76.704C27.4552 77.3284 28.4363 77.963 29.4162 78.6078C30.1777 77.7359 30.9659 76.8639 31.7465 76.0033C32.786 74.861 33.8217 73.6958 34.8688 72.5535C35.8055 71.5381 36.7473 70.5227 37.6942 69.5073C38.6461 68.483 39.5866 67.4664 40.5538 66.4878Z" fill="white"/>
<path d="M26.5447 77.062L26.5181 77.0925C26.4038 77.2219 26.2858 77.3552 26.1678 77.4732C25.6118 78.0901 25.0254 78.6879 24.4467 79.2743C23.7308 79.994 22.9921 80.6908 22.2458 81.3838C21.4995 82.0768 20.7455 82.7432 19.9611 83.4019C19.1767 84.0606 18.4 84.7118 17.5813 85.3058C18.2515 84.5442 18.9597 83.8055 19.6756 83.0897C20.3914 82.3738 21.1339 81.6694 21.8764 80.9802C22.6189 80.291 23.3995 79.6132 24.1611 78.9545C24.7779 78.429 25.4062 77.9073 26.0649 77.4123C26.2134 77.2943 26.3658 77.1839 26.5181 77.0696L26.5447 77.062Z" fill="white"/>
<path d="M42.5988 81.917C41.6469 81.5362 40.6949 81.1364 39.7963 80.71C38.8977 80.2835 37.9648 79.8266 37.0585 79.3696C36.1523 78.9127 35.2575 78.4291 34.3931 77.9265C33.6735 77.5229 32.9576 77.104 32.2608 76.6585L31.8115 76.3729L31.781 76.3501H31.8191L32.3484 76.5595C33.1099 76.8641 33.8448 77.1992 34.5835 77.5419C35.5088 77.9684 36.415 78.4215 37.3175 78.8822C38.2199 79.343 39.1185 79.8228 40.0019 80.3254C40.8853 80.828 41.7421 81.3535 42.5988 81.917Z" fill="white"/>
<path d="M150.358 24.2866H119.264V44.0069H150.358V24.2866Z" fill="#EBEBEB"/>
<path d="M150.357 24.2866C149.101 25.4861 147.821 26.636 146.55 27.8202C145.278 29.0044 143.995 30.1315 142.711 31.2776C141.428 32.4238 140.027 33.6537 138.679 34.8264L138.561 34.9407C137.37 35.9789 136.176 37.0159 134.978 38.0516L134.799 38.1963L134.628 38.0516C133.432 37.0159 132.24 35.9777 131.052 34.9369L130.926 34.8264C129.573 33.6537 128.228 32.4682 126.89 31.27C125.611 30.1277 124.331 28.9854 123.056 27.8202C121.78 26.655 120.512 25.4861 119.248 24.2866C120.585 25.3147 121.913 26.3961 123.216 27.4509C124.518 28.5056 125.851 29.5984 127.157 30.6912C128.616 31.897 130.072 33.1218 131.524 34.3657C132.613 35.2872 133.702 36.2137 134.791 37.1454C135.873 36.2163 136.962 35.2834 138.051 34.3657C139.503 33.132 140.959 31.9072 142.418 30.6912C143.723 29.6048 145.035 28.5272 146.355 27.4585C147.711 26.3961 149.021 25.3147 150.357 24.2866Z" fill="white"/>
<path d="M131.586 34.8154C131.574 34.8265 131.561 34.8367 131.548 34.8459C131.384 34.9868 131.224 35.1277 131.061 35.2609C130.28 35.9197 129.48 36.5518 128.669 37.1648C127.679 37.9264 126.666 38.646 125.646 39.3657C124.625 40.0853 123.597 40.7707 122.546 41.4447C121.496 42.1187 120.437 42.7736 119.34 43.3752C120.281 42.549 121.244 41.7798 122.253 41.0297C123.262 40.2795 124.26 39.5485 125.273 38.8288C126.286 38.1091 127.329 37.4199 128.38 36.746C129.214 36.2091 130.063 35.6798 130.935 35.1848C131.133 35.0705 131.335 34.9563 131.54 34.8459L131.586 34.8154Z" fill="white"/>
<path d="M150.285 43.3711C149.185 42.7695 148.123 42.1108 147.075 41.4406C146.028 40.7704 144.996 40.066 143.968 39.3616C142.94 38.6571 141.939 37.9184 140.949 37.1607C140.142 36.5515 139.342 35.9232 138.569 35.2568C138.398 35.1159 138.238 34.9751 138.074 34.8342C138.061 34.825 138.048 34.8148 138.036 34.8037L138.082 34.8266L138.687 35.1693C139.559 35.6643 140.404 36.1935 141.242 36.7304C142.293 37.4044 143.321 38.105 144.345 38.8133C145.37 39.5215 146.375 40.2564 147.365 41.0141C148.355 41.7719 149.341 42.5448 150.285 43.3711Z" fill="white"/>
<path d="M78.4259 173.413C108.538 173.413 132.949 171.522 132.949 169.19C132.949 166.858 108.538 164.967 78.4259 164.967C48.3136 164.967 23.9028 166.858 23.9028 169.19C23.9028 171.522 48.3136 173.413 78.4259 173.413Z" fill="#EBEBEB"/>
<path d="M96.8791 0.587402H96.4983V52.9667H96.8791V0.587402Z" fill="#C7C7C7"/>
<path d="M81.1448 67.9505L82.3975 70.6996H110.986L112.231 67.9505L100.062 59.5239H93.3181L81.1448 67.9505Z" fill="#FF8800"/>
<path d="M92.4746 51.4092L93.3199 59.5235H100.063L100.909 51.4092H92.4746Z" fill="#FF8800"/>
<path opacity="0.1" d="M81.1506 67.9502L82.3996 70.6994H110.992L112.237 67.9502H81.1506Z" fill="black"/>
<path opacity="0.1" d="M93.3179 59.5235L93.2266 58.6516L100.202 58.1489L100.061 59.5235H93.3179Z" fill="black"/>
<path d="M70.9362 0.587402H70.5554V36.483H70.9362V0.587402Z" fill="#C7C7C7"/>
<path d="M55.2034 51.4662L56.4561 54.2154H85.0446L86.2898 51.4662L74.1202 43.0435H67.3767L55.2034 51.4662Z" fill="#FF8800"/>
<path d="M66.5315 34.9258L67.3768 43.0439H74.1203L74.9656 34.9258H66.5315Z" fill="#FF8800"/>
<path opacity="0.1" d="M55.2078 51.4707L56.4567 54.2161H85.0452L86.2942 51.4707H55.2078Z" fill="black"/>
<path opacity="0.1" d="M67.3768 43.0435L67.2778 42.103L74.265 41.6499L74.1203 43.0435H67.3768Z" fill="black"/>
<path d="M136 120.036C136.114 118.113 136.387 116.203 136.815 114.325C137.219 112.63 137.79 110.898 138.86 109.493C139.33 108.832 139.927 108.272 140.615 107.843C141.303 107.414 142.069 107.126 142.869 106.995C144.442 106.804 145.916 107.505 147.092 108.491C148.547 109.717 149.662 111.343 150.709 112.916C151.856 114.676 152.899 116.502 153.832 118.384C153.866 118.445 153.771 118.498 153.74 118.437C152.929 116.843 151.995 115.315 150.946 113.868C149.989 112.478 148.912 111.174 147.728 109.972C146.65 108.921 145.28 107.935 143.715 107.886C142.15 107.836 140.726 108.708 139.793 109.908C138.746 111.248 138.212 112.92 137.813 114.549C137.408 116.336 137.146 118.151 137.028 119.979C136.72 123.753 136.647 127.549 136.552 131.33C136.503 133.47 136.476 135.614 136.453 137.754L136.43 141.009C136.469 142.057 136.427 143.106 136.305 144.147C136.267 144.356 135.924 144.337 135.886 144.147C135.759 143.161 135.712 142.166 135.745 141.173C135.73 140.145 135.717 139.117 135.707 138.089C135.687 136.091 135.679 134.092 135.684 132.091C135.677 128.067 135.726 124.042 136 120.036Z" fill="#263238"/>
<path d="M141.392 117.192C141.59 116.125 141.952 114.736 142.557 113.909C143.65 112.424 144.842 113.068 143.742 114.713C142.938 115.934 142.418 117.32 142.219 118.768C142.219 118.768 144.054 121.392 146.27 122.682C146.175 121.673 145.889 120.124 146.087 118.627C146.514 115.387 148.475 115.581 147.991 118.144C147.61 120.207 147.443 122.401 147.549 123.349C148.29 123.829 149.085 124.219 149.918 124.51C149.788 124.129 149.655 123.684 149.507 123.136C148.718 120.23 150.649 119.328 150.717 120.961C150.846 122.355 151.101 123.734 151.479 125.081C152.541 125.439 153.425 125.683 153.962 125.869C155.358 126.387 156.605 127.239 157.594 128.352C158.603 127.441 159.441 126.356 160.069 125.15C159.392 124.567 158.322 123.703 156.837 122.652C154.053 120.687 155.02 118.205 157.217 119.747C158.809 120.862 160.043 122.926 160.606 123.985C161.357 122.139 161.784 120.177 161.867 118.185C159.681 116.133 154.27 113.27 155.9 113.27C157.37 113.27 160.652 115.421 161.855 116.251C161.826 115.687 161.765 115.125 161.672 114.568C159.612 113.216 152.915 111.118 153.985 110.513C155.153 109.85 159.826 112.013 161.238 112.695C160.973 111.777 160.554 110.911 160.001 110.132C157.153 106.324 152.004 105.011 149.781 105.734C148.197 106.248 148.638 110.269 148.319 110.132C141.944 107.585 139.051 109.382 141.392 117.192ZM157.004 116.75C157.457 116.205 159.544 117.812 158.942 118.688C158.341 119.564 156.414 117.451 156.996 116.75H157.004ZM146.087 113.323C146.636 113.673 145.825 115.703 144.975 115.09C144.263 114.564 145.528 112.969 146.08 113.323H146.087Z" fill="#FF8800"/>
<path d="M146.93 113.944C147.216 113.376 147.517 112.801 147.844 112.265C148.145 111.725 148.497 111.215 148.895 110.741C148.808 110.631 148.72 110.517 148.625 110.406C148.587 110.361 148.651 110.3 148.689 110.342C148.796 110.464 148.899 110.589 149.002 110.722C149.012 110.728 149.022 110.735 149.03 110.745C149.038 110.754 149.044 110.764 149.047 110.776C149.441 111.248 149.813 111.731 150.163 112.226C150.789 112.371 151.407 112.55 152.014 112.763C152.638 112.973 153.259 113.19 153.864 113.445C153.929 113.472 153.895 113.578 153.834 113.548C153.232 113.285 152.623 113.026 151.998 112.817C151.374 112.607 150.81 112.463 150.213 112.295C150.407 112.569 150.593 112.843 150.78 113.125C151.904 113.481 152.998 113.927 154.051 114.458C155.155 114.983 156.217 115.6 157.276 116.206C157.337 116.24 157.276 116.335 157.219 116.297C156.178 115.689 155.107 115.135 154.009 114.637C152.985 114.157 151.926 113.765 150.894 113.308C153.495 117.363 155.052 122.047 157.139 126.38C157.169 126.445 157.07 126.494 157.044 126.433C156.408 124.91 155.673 123.433 154.98 121.936C154.359 120.592 153.75 119.244 153.129 117.9C152.947 117.519 152.749 117.116 152.566 116.727C152.68 118.894 152.634 121.099 152.992 123.238C152.992 123.245 152.991 123.252 152.988 123.259C152.985 123.265 152.982 123.271 152.977 123.276C152.972 123.281 152.966 123.285 152.959 123.288C152.953 123.29 152.946 123.292 152.939 123.292C152.932 123.292 152.925 123.29 152.918 123.288C152.912 123.285 152.906 123.281 152.901 123.276C152.896 123.271 152.892 123.265 152.89 123.259C152.887 123.252 152.886 123.245 152.886 123.238C152.733 120.923 152.326 118.643 152.341 116.316C152.341 116.316 152.341 116.297 152.341 116.286C151.899 115.398 151.427 114.526 150.921 113.677C150.06 115.703 149.154 117.763 148.754 119.941C148.754 120.006 148.632 119.979 148.648 119.911C149.234 117.729 149.79 115.543 150.829 113.525C150.278 112.606 149.666 111.724 148.998 110.886C148.708 111.423 148.339 111.933 148.012 112.447C147.684 112.961 147.376 113.456 147.079 113.97C146.438 115.063 145.894 116.21 145.453 117.397C145.426 117.462 145.323 117.428 145.35 117.367C145.845 116.228 146.348 115.067 146.93 113.944Z" fill="#263238"/>
<path d="M126.42 118.879C128.088 117.203 130.026 115.01 132.604 115.014C135.094 115.014 136.926 117.02 137.977 119.088C139.077 121.251 139.473 123.699 139.785 126.079C140.153 128.931 140.377 131.799 140.455 134.673C140.501 136.268 140.493 137.868 140.455 139.463C140.45 141.081 140.323 142.696 140.075 144.295C140.029 144.55 139.614 144.562 139.599 144.295C139.523 142.951 139.576 141.599 139.599 140.255C139.622 138.911 139.599 137.59 139.538 136.284C139.439 133.618 139.245 130.953 138.928 128.287C138.654 125.961 138.437 123.573 137.74 121.327C137.116 119.301 135.939 116.986 133.887 116.095C131.085 114.884 128.347 117.1 126.515 118.974C126.454 119.008 126.367 118.928 126.42 118.879Z" fill="#263238"/>
<path d="M117.91 122.618C117.91 122.961 117.941 123.296 117.963 123.627C118.766 123.025 119.705 122.633 120.697 122.485C123.066 122.233 122.913 124.031 121.333 124.107C120.22 124.121 119.118 124.341 118.085 124.758C118.466 127.884 119.33 130.397 119.46 130.431C121.56 130.322 123.651 130.068 125.716 129.67C125.126 128.413 123.785 126.745 124.471 126.624C125.156 126.502 125.899 127.972 126.279 129.567C127.833 129.27 129.361 128.851 130.849 128.314C129.805 127.412 128.183 126.289 128.812 125.813C129.44 125.337 130.715 126.913 131.477 128.063C132.175 127.778 132.836 127.41 133.446 126.966C132.041 124.902 128.621 124.484 129.067 122.995C129.512 121.506 132.715 123.57 134.15 126.33C135.837 124.579 136.332 122.104 136.153 119.987C134.683 119.815 131.858 120.128 132.063 119.073C132.269 118.018 134.31 118.216 135.982 118.833C135.828 117.995 135.493 117.201 134.999 116.506C133.453 114.519 128.724 117.047 128.724 117.047C128.724 117.047 129.23 112.295 127.429 111.476C126.39 111.004 124.555 111.008 122.715 112.089C123.747 112.177 125 112.504 125.495 113.232C126.139 114.142 125.114 114.641 124.482 114.218C124.029 113.921 123.184 112.98 121.657 112.855C121.005 113.409 120.431 114.05 119.951 114.759C119.776 115.006 119.616 115.265 119.452 115.547C120.325 115.153 121.274 114.957 122.232 114.975C123.189 114.992 124.131 115.221 124.989 115.646C127.037 116.663 125.891 118.791 124.128 117.965C122.365 117.139 120.701 116.324 118.816 116.792C118.154 118.465 117.839 120.256 117.891 122.054C118.809 121.386 119.841 120.891 120.937 120.596C122.974 120.063 123.603 121.278 121.352 121.506C120.141 121.637 118.969 122.015 117.91 122.618ZM120.389 119.347C120.248 118.684 121.691 118.498 121.931 119.031C122.133 119.488 120.526 120.006 120.389 119.347ZM132.749 123.002C132.886 122.641 133.853 123.052 133.765 123.501C133.644 124.099 132.616 123.36 132.749 123.002ZM125.925 125.318C126.63 125.036 127.73 126.787 126.961 127.187C126.192 127.587 125.347 125.55 125.925 125.318Z" fill="#FF8800"/>
<path d="M119.734 130.085C120.796 128.311 121.847 126.529 122.963 124.785C123.481 123.974 124.025 123.178 124.589 122.397L124.337 122.336L123.915 122.256C123.587 122.199 123.26 122.153 122.928 122.119C122.597 122.085 122.308 122.07 121.996 122.066C121.663 122.047 121.33 122.065 121.002 122.119C120.995 122.119 120.988 122.116 120.983 122.111C120.978 122.106 120.975 122.1 120.975 122.092C120.975 122.085 120.978 122.079 120.983 122.074C120.988 122.069 120.995 122.066 121.002 122.066C121.333 122.066 121.672 122.035 122.003 122.032C122.334 122.028 122.651 122.032 122.97 122.054C123.273 122.071 123.574 122.102 123.873 122.15C124.04 122.172 124.204 122.203 124.368 122.233C124.469 122.249 124.57 122.271 124.669 122.298C125.244 121.506 125.841 120.733 126.458 119.972C124.622 119.08 122.668 118.456 120.655 118.117C120.621 118.117 120.636 118.06 120.655 118.064C122.702 118.348 124.691 118.952 126.55 119.854L127.574 118.608C127.955 118.148 128.37 117.695 128.716 117.207C128.739 117.173 128.785 117.207 128.762 117.238C128.283 117.762 127.833 118.313 127.414 118.886C128.174 119.414 128.896 119.992 129.577 120.619C130.282 121.246 130.97 121.893 131.641 122.561C131.667 122.584 131.641 122.622 131.603 122.599C130.94 121.94 130.255 121.312 129.539 120.714C128.823 120.116 128.065 119.572 127.345 118.982C127.182 119.202 127.018 119.419 126.85 119.633C126.767 119.739 126.687 119.85 126.603 119.96L126.584 119.983C126.306 120.341 126.032 120.703 125.758 121.064C126.08 121.53 126.355 122.026 126.58 122.546C126.816 123.044 127.026 123.562 127.216 124.069C127.596 125.153 127.892 126.266 128.099 127.397C128.099 127.427 128.058 127.442 128.05 127.397C127.823 126.283 127.5 125.191 127.083 124.133C126.877 123.593 126.641 123.063 126.401 122.534C126.161 122.005 125.91 121.594 125.704 121.106C125.468 121.422 125.228 121.742 124.996 122.062C124.928 122.153 124.863 122.249 124.798 122.344C124.798 122.363 124.798 122.39 124.775 122.393C124.044 123.41 123.351 124.453 122.677 125.508C122.717 125.58 122.748 125.657 122.769 125.737C122.81 125.866 122.852 125.995 122.89 126.117C122.966 126.378 123.028 126.642 123.077 126.909C123.119 127.157 123.157 127.412 123.18 127.671C123.186 127.959 123.208 128.246 123.245 128.531C123.245 128.573 123.184 128.577 123.191 128.531C123.21 128.263 123.191 127.994 123.134 127.732C123.096 127.458 123.043 127.183 122.982 126.913C122.921 126.643 122.856 126.426 122.784 126.186C122.75 126.068 122.711 125.946 122.67 125.828C122.628 125.71 122.616 125.698 122.593 125.634C122.277 126.129 121.965 126.624 121.657 127.126C121.047 128.12 120.442 129.114 119.829 130.108C119.826 130.12 119.818 130.131 119.807 130.138C119.796 130.145 119.783 130.147 119.77 130.144C119.757 130.141 119.746 130.133 119.74 130.122C119.733 130.111 119.731 130.098 119.734 130.085Z" fill="#263238"/>
<path d="M136.111 143.72C136.137 142.714 136.297 141.698 136.408 140.7C136.518 139.703 136.628 138.69 136.735 137.684C136.944 135.746 137.059 133.766 137.497 131.866C137.834 130.213 138.657 128.699 139.861 127.518C140.486 126.893 141.306 126.502 142.184 126.41C143.067 126.385 143.933 126.653 144.648 127.171C145.461 127.773 146.162 128.513 146.719 129.357C147.321 130.191 147.862 131.068 148.337 131.98C148.337 132.015 148.299 132.038 148.28 132.003C147.384 130.48 146.196 129.149 144.785 128.085C144.156 127.569 143.389 127.25 142.58 127.167C142.185 127.16 141.793 127.232 141.426 127.379C141.059 127.525 140.725 127.743 140.444 128.02C139.271 129.041 138.589 130.541 138.186 132.015C137.706 133.759 137.554 135.598 137.314 137.387C137.169 138.45 137.036 139.516 136.895 140.582C136.754 141.648 136.667 142.726 136.442 143.769C136.426 143.803 136.399 143.831 136.366 143.848C136.333 143.866 136.295 143.873 136.258 143.867C136.221 143.861 136.187 143.844 136.16 143.818C136.133 143.791 136.116 143.757 136.111 143.72Z" fill="#263238"/>
<path d="M141.06 135.907C141.371 136.328 141.739 136.703 142.153 137.022C141.99 136.044 141.773 134.296 142.283 133.371C143.044 131.928 143.966 132.647 143.505 133.9C143.046 135.031 142.796 136.236 142.766 137.456C143.814 138.112 144.934 138.641 146.106 139.033C145.982 138.468 145.945 137.888 145.995 137.312C146.151 135.77 147.332 135.789 147.023 137.403C146.909 138.023 146.856 138.653 146.863 139.284C148.567 139.809 150.309 140.203 152.072 140.461C152.973 139.292 153.698 137.999 154.228 136.623C152.971 136.31 150.42 136.242 150.485 135.339C150.557 134.132 153.017 135.061 154.46 135.937C154.788 134.887 154.935 133.789 154.894 132.689C153.764 132.375 152.604 132.183 151.433 132.118C148.847 131.893 148.973 130.427 150.846 130.462C152.229 130.488 153.976 131.334 154.806 131.775C154.266 128.257 151.585 126.007 149.434 125.919C145.82 125.774 147.122 130.271 147.122 130.271C147.122 130.271 144.67 128.55 142.359 128.596C140.048 128.641 138.589 132.468 141.06 135.907ZM150.713 129.403C150.633 128.897 152.236 128.775 152.331 129.426C152.427 130.153 150.793 129.917 150.713 129.403ZM153.31 134.681C153.276 134.349 153.973 134.3 154.129 134.707C154.235 135 153.337 135 153.31 134.681ZM144.644 135C145.188 135.077 145.5 137.026 144.56 136.988C143.833 136.946 144.168 134.924 144.644 135Z" fill="#FF8800"/>
<path d="M145.383 137.152C145.475 136.908 145.555 136.664 145.631 136.417C145.562 136.664 145.498 136.916 145.452 137.179C145.45 137.183 145.448 137.187 145.444 137.191C145.441 137.194 145.437 137.197 145.432 137.199C145.428 137.201 145.423 137.202 145.418 137.202C145.414 137.202 145.409 137.201 145.404 137.199C145.4 137.198 145.396 137.195 145.392 137.192C145.389 137.188 145.386 137.184 145.384 137.18C145.382 137.176 145.381 137.171 145.381 137.166C145.381 137.161 145.382 137.156 145.383 137.152Z" fill="#263238"/>
<path d="M146.339 134.022C146.507 133.523 146.697 133.028 146.891 132.537C146.994 132.278 147.104 132.015 147.219 131.775C147.299 131.546 147.406 131.328 147.538 131.124C147.428 130.92 147.33 130.709 147.245 130.492C147.245 130.473 147.264 130.454 147.28 130.473C147.547 130.815 147.783 131.181 147.984 131.566C148.087 131.734 148.182 131.909 148.277 132.08C148.482 132.098 148.686 132.13 148.886 132.175C149.103 132.213 149.32 132.259 149.534 132.309C149.747 132.358 149.964 132.404 150.177 132.457C150.39 132.51 150.604 132.579 150.821 132.609C150.87 132.609 150.847 132.697 150.802 132.678C150.581 132.6 150.354 132.542 150.124 132.503C149.918 132.457 149.709 132.419 149.499 132.392C149.29 132.366 149.081 132.335 148.867 132.312L148.391 132.274C148.475 132.427 148.567 132.575 148.65 132.727C148.661 132.754 148.674 132.779 148.688 132.804C148.863 132.801 149.037 132.822 149.206 132.864C149.393 132.899 149.587 132.933 149.766 132.975C150.147 133.059 150.528 133.146 150.889 133.249C151.674 133.47 152.443 133.717 153.216 133.969C153.258 133.969 153.216 134.049 153.189 134.033C152.422 133.777 151.641 133.561 150.851 133.386C150.47 133.302 150.112 133.219 149.743 133.142L149.183 133.024C149.038 133.001 148.894 132.968 148.753 132.925C149.134 133.66 149.515 134.41 149.869 135.172C150.63 136.828 151.251 138.538 151.895 140.24C151.895 140.282 151.845 140.309 151.83 140.267C151.209 138.576 150.489 136.923 149.675 135.317C149.53 135.023 149.381 134.734 149.237 134.437C149.237 134.498 149.21 134.559 149.199 134.62C149.161 134.818 149.126 135.02 149.092 135.221C149.023 135.625 148.955 136.029 148.894 136.432C148.722 137.26 148.625 138.101 148.605 138.945C148.605 138.999 148.525 138.995 148.532 138.945C148.597 138.546 148.597 138.127 148.624 137.723C148.65 137.32 148.681 136.874 148.73 136.455C148.78 136.036 148.829 135.644 148.898 135.241C148.932 135.039 148.966 134.837 149.004 134.635C149.014 134.484 149.051 134.335 149.115 134.197C148.905 133.775 148.696 133.348 148.479 132.925C148.262 132.503 148.075 132.13 147.87 131.737C147.782 131.57 147.687 131.402 147.596 131.231C147.529 131.439 147.449 131.643 147.356 131.84L147.078 132.526C146.868 133.028 146.678 133.538 146.484 134.049C146.21 134.772 145.909 135.511 145.684 136.265C145.905 135.503 146.092 134.749 146.339 134.022Z" fill="#263238"/>
<path d="M145.631 136.417C145.631 136.356 145.666 136.299 145.685 136.242C145.666 136.299 145.65 136.356 145.631 136.417Z" fill="#263238"/>
<path d="M130.068 141.763L130.323 147.144L130.975 161.011H145.284L145.939 147.144L146.19 141.763H130.068Z" fill="#37474F"/>
<path d="M130.068 141.763L130.323 147.144H145.939L146.19 141.763H130.068Z" fill="#263238"/>
<path d="M129.048 143.937H147.207V139.585H129.048V143.937Z" fill="#37474F"/>
<path d="M144.127 161.011H141.614V163.288H144.127V161.011Z" fill="#37474F"/>
<path d="M144.127 161.011H141.614V162.15H144.127V161.011Z" fill="#263238"/>
<path d="M134.646 161.011H132.137V163.288H134.646V161.011Z" fill="#37474F"/>
<path d="M134.646 161.011H132.137V162.15H134.646V161.011Z" fill="#263238"/>
<path d="M4 163.345L23.9297 163.254L43.8594 163.22L83.7227 163.155L123.586 163.22L143.516 163.254L163.445 163.345L143.516 163.44L123.586 163.471L83.7227 163.536L43.8594 163.471L23.9297 163.44L4 163.345Z" fill="#263238"/>
<path d="M83.8091 113.711C83.3902 113.711 82.9524 113.711 82.5145 113.685V113.399C82.9562 113.418 83.4017 113.426 83.8243 113.426H84.0299V113.711H83.7977H83.8091ZM85.9529 113.643L85.9338 113.357C86.4402 113.323 86.9467 113.277 87.4569 113.216L87.4912 113.502C86.9771 113.559 86.4631 113.608 85.9529 113.643ZM80.622 113.563C80.127 113.517 79.613 113.464 79.0989 113.399L79.1332 113.113C79.6434 113.178 80.1499 113.235 80.6563 113.277L80.622 113.563ZM89.3798 113.205L89.3227 112.927C89.8215 112.828 90.3165 112.717 90.8001 112.592L90.8725 112.87C90.3736 112.995 89.871 113.11 89.3684 113.205H89.3798ZM77.1951 113.113C76.6962 113.026 76.1898 112.931 75.6948 112.828L75.7519 112.55C76.2469 112.653 76.7495 112.748 77.2446 112.832L77.1951 113.113ZM73.8214 112.401C73.3226 112.28 72.8276 112.146 72.344 112.021L72.4201 111.746C72.8999 111.884 73.3949 112.017 73.8899 112.127L73.8214 112.401ZM92.6811 112.31L92.5859 112.04C93.0657 111.872 93.5379 111.686 93.9948 111.488L94.109 111.746C93.6597 111.948 93.1799 112.154 92.6926 112.31H92.6811ZM70.5163 111.442C69.6062 111.141 69.077 110.924 69.0693 110.924L69.1798 110.657C69.1798 110.657 69.7052 110.871 70.6077 111.171L70.5163 111.442ZM95.8263 110.897L95.6854 110.646C96.1233 110.402 96.5574 110.136 96.9763 109.858L97.1324 110.098C96.7211 110.379 96.2871 110.631 95.8378 110.897H95.8263ZM98.6821 108.974L98.507 108.75C98.9106 108.438 99.3066 108.118 99.6836 107.794L99.8702 108.011C99.5008 108.346 99.101 108.662 98.6936 108.974H98.6821ZM101.279 106.72L101.081 106.515C101.439 106.16 101.793 105.795 102.132 105.426L102.341 105.62C101.999 105.993 101.656 106.362 101.29 106.72H101.279ZM103.583 104.161L103.358 103.986C103.674 103.605 103.979 103.179 104.264 102.772L104.5 102.935C104.219 103.35 103.903 103.777 103.594 104.158L103.583 104.161ZM105.54 101.332L105.296 101.184C105.559 100.75 105.806 100.304 106.039 99.8625L106.29 99.9958C106.069 100.441 105.806 100.891 105.551 101.332H105.54ZM107.112 98.2671L106.854 98.1528C107.048 97.6997 107.234 97.2237 107.413 96.7478L107.684 96.8468C107.516 97.3303 107.33 97.8063 107.124 98.2671H107.112ZM108.274 95.0267L108 94.9467C108.141 94.4669 108.266 93.9719 108.38 93.4807L108.658 93.5455C108.556 94.0405 108.426 94.5393 108.285 95.0191L108.274 95.0267ZM109.013 91.6644L108.731 91.6187C108.807 91.1237 108.868 90.6173 108.917 90.1185L109.199 90.1451C109.165 90.6516 109.1 91.1618 109.024 91.6644H109.013ZM109.317 88.2375H109.032C109.032 88.0166 109.032 87.7958 109.032 87.5749C109.032 87.2893 109.032 87.0038 109.032 86.722H109.317C109.317 87.0076 109.317 87.2931 109.317 87.5825C109.336 87.7843 109.332 88.009 109.329 88.2337L109.317 88.2375ZM110.753 87.9062C110.547 87.9062 110.345 87.9062 110.14 87.9062V87.6206C110.641 87.6492 111.143 87.6492 111.644 87.6206L111.663 87.9062C111.385 87.891 111.073 87.9024 110.756 87.9024L110.753 87.9062ZM108.232 87.6777C107.727 87.5863 107.228 87.4681 106.736 87.3236L106.815 87.0494C107.298 87.191 107.787 87.3066 108.281 87.396L108.232 87.6777ZM113.582 87.613L113.525 87.335C114.017 87.2367 114.502 87.1095 114.979 86.9543L115.067 87.2246C114.583 87.3812 114.091 87.5096 113.593 87.6092L113.582 87.613ZM104.946 86.642C104.478 86.4306 104.023 86.1928 103.583 85.93L103.727 85.6863C104.16 85.9421 104.606 86.1734 105.064 86.3793L104.946 86.642ZM116.853 86.4631L116.727 86.2079C117.175 85.9787 117.61 85.7244 118.029 85.4464L118.185 85.6825C117.755 85.9704 117.309 86.2335 116.849 86.4707L116.853 86.4631ZM102.002 84.8371C101.751 84.6353 101.5 84.4183 101.26 84.1936C101.123 84.0642 100.99 83.9347 100.879 83.8129L101.081 83.6111C101.207 83.7405 101.336 83.8662 101.462 83.9918C101.698 84.2127 101.942 84.4221 102.189 84.6239L102.002 84.8371ZM108.91 84.8143C108.853 84.3079 108.78 83.8053 108.696 83.3179L108.978 83.2684C109.066 83.7634 109.138 84.2736 109.192 84.7915L108.91 84.8143ZM119.716 84.5211L119.526 84.3079C119.903 83.9755 120.262 83.622 120.599 83.2493L120.809 83.4435C120.464 83.8253 120.098 84.1876 119.712 84.5287L119.716 84.5211ZM99.6531 82.3012C99.368 81.8725 99.1329 81.4126 98.9525 80.9304L99.219 80.8352C99.3904 81.3012 99.6126 81.7468 99.8816 82.1641L99.6531 82.3012ZM122.008 81.9204L121.772 81.7567C121.989 81.4521 122.195 81.1284 122.389 80.8048C122.454 80.6981 122.519 80.5915 122.58 80.4811L122.827 80.622C122.762 80.7324 122.701 80.8428 122.637 80.9494C122.435 81.3112 122.222 81.6348 122.005 81.9471L122.008 81.9204ZM108.3 81.4521C108.163 80.9494 108.011 80.4659 107.844 80.0127L108.114 79.9137C108.281 80.3745 108.438 80.8657 108.575 81.3759L108.3 81.4521ZM98.9258 79.0265H98.6402C98.658 78.5026 98.7715 77.9864 98.9753 77.5034L99.2381 77.6139C99.0507 78.0624 98.945 78.5408 98.9258 79.0265ZM123.676 78.9504L123.417 78.84C123.608 78.3906 123.798 77.9147 123.962 77.4311L124.232 77.5225C124.057 77.9984 123.87 78.4782 123.672 78.9313L123.676 78.9504ZM107.063 78.3411C106.828 77.9017 106.552 77.4849 106.241 77.096L106.461 76.9132C106.785 77.3165 107.07 77.7486 107.314 78.2041L107.063 78.3411ZM100.335 76.1517L100.16 75.9308C100.571 75.5991 101.045 75.3531 101.553 75.2074L101.629 75.4815C101.158 75.6111 100.717 75.8323 100.331 76.1327L100.335 76.1517ZM104.828 75.9156C104.399 75.6736 103.933 75.5026 103.449 75.4092L103.503 75.1274C104.017 75.2289 104.512 75.4114 104.969 75.6681L104.828 75.9156ZM124.788 75.691L124.51 75.6186C124.632 75.1655 124.75 74.6819 124.872 74.145L125.15 74.2059C125.024 74.7314 124.906 75.2188 124.784 75.6719L124.788 75.691ZM125.55 72.3401L125.268 72.283L125.561 70.7904L125.839 70.8437L125.55 72.3401ZM126.227 68.9855L125.949 68.9208C126.071 68.3725 126.193 67.8851 126.33 67.4358L126.604 67.5119C126.456 67.9384 126.334 68.422 126.212 68.9665L126.227 68.9855ZM127.179 65.7147L126.913 65.6157C127.083 65.1243 127.282 64.6436 127.511 64.1763L127.766 64.3058C127.54 64.759 127.339 65.2242 127.164 65.6994L127.179 65.7147ZM128.767 62.7408L128.535 62.5695C128.839 62.1563 129.171 61.7645 129.529 61.3967L129.73 61.5947C129.379 61.948 129.052 62.3246 128.752 62.7218L128.767 62.7408ZM131.147 60.3686L130.976 60.1363C131.39 59.8352 131.821 59.5568 132.266 59.3024L132.407 59.5538C131.966 59.799 131.54 60.0711 131.132 60.3686H131.147ZM134.098 58.7275L133.984 58.4647C134.384 58.2972 134.806 58.1373 135.244 57.9888L135.335 58.2591C134.89 58.3848 134.475 58.5409 134.083 58.7084L134.098 58.7275Z" fill="#263238"/>
<path d="M134.444 52.159L131.531 60.1629L137.651 55.3841L161.038 46.9043L134.444 52.159Z" fill="#FFC727"/>
<path opacity="0.1" d="M134.444 52.159L131.531 60.1629L137.651 55.3841L161.038 46.9043L134.444 52.159Z" fill="#FF8800"/>
<path d="M138.435 57.2506L131.531 60.1635L137.651 55.3848L138.435 57.2506Z" fill="#263238"/>
<path d="M137.651 55.3841L161.039 46.9043L141.855 65.6231L137.651 55.3841Z" fill="#FF8800"/>
<path d="M134.444 52.1594L124.727 45.8843L161.037 46.9048L134.444 52.1594Z" fill="#FF8800"/>
<path d="M20.2919 163.285L83.7212 163.559C99.1388 151.454 100.73 133.516 89.7298 122.645C83.0777 116.065 74.6245 117.39 66.5864 116.343H66.5635C63.761 115.962 61.0119 115.326 58.3997 113.948C50.1103 109.577 45.4534 99.2615 38.4662 90.5836C37.5981 89.4984 36.688 88.4399 35.7361 87.4194C30.0016 81.2965 18.6012 81.0985 12.6193 89.704C-2.55837 111.572 4.38695 144.139 20.2919 163.285Z" fill="#FF8800"/>
<path opacity="0.1" d="M18.883 113.239C20.5431 139.265 50.6014 148.978 69.3698 141.184C85.6936 134.402 80.3513 118.932 66.5863 116.342H66.5635C63.761 115.962 61.0118 115.326 58.3997 113.947C50.1102 109.576 45.4534 99.2608 38.4662 90.5829C28.0672 85.1835 17.6645 94.185 18.883 113.239Z" fill="black"/>
<path d="M78.5996 167.367C77.621 167.009 55.5132 149.341 55.0982 148.134C54.9383 147.677 57.3219 144.326 60.3186 140.316C60.9659 139.456 61.6399 138.569 62.3291 137.674C66.7956 131.852 71.6733 125.782 71.6733 125.782L86.4968 137.556L76.7452 149.127L74.6052 151.667C74.6052 151.667 80.0427 162.218 80.3587 163.589C80.6748 164.96 79.5781 167.747 78.5996 167.367Z" fill="#D3766A"/>
<path d="M78.5999 167.366C77.6213 166.985 55.5174 149.34 55.0985 148.133C54.9653 147.753 56.5188 145.468 58.7197 142.471C61.9334 146.313 73.1396 157.752 76.201 159.282C78.143 160.253 77.7584 158.346 77.0311 156.449C78.5238 159.431 80.1877 162.846 80.3591 163.585C80.6751 164.975 79.5785 167.747 78.5999 167.366Z" fill="#263238"/>
<path d="M101.465 114.93C100.452 122.629 81.4747 144.859 79.2814 147.41L78.7712 147.989L63.0833 135.926L63.2623 135.694L77.0882 117.592C77.0882 117.592 54.2417 130.919 42.7918 124.876C37.6476 122.157 33.8398 117.325 33.8398 117.325L48.7662 109.367C48.7662 109.367 52.8976 110.703 55.5363 110.319C64.6368 108.986 85.0273 101.245 89.8669 101.439C96.1154 101.694 102.398 107.863 101.465 114.93Z" fill="#37474F"/>
<path d="M82.0528 110.864C81.5389 111.442 81.062 112.053 80.6249 112.691C80.1375 113.335 79.6387 113.967 79.1513 114.595V114.614C79.2389 114.424 79.3227 114.233 79.4141 114.051C79.7225 113.411 79.97 112.752 80.3317 112.147C80.334 112.139 80.3338 112.132 80.331 112.124C80.3283 112.117 80.3232 112.111 80.3166 112.107C80.3101 112.103 80.3023 112.102 80.2947 112.103C80.2871 112.104 80.28 112.107 80.2746 112.112C79.8938 112.718 79.4674 113.293 79.1323 113.929C78.98 114.23 78.8391 114.534 78.7058 114.843C78.6335 115.01 78.5573 115.182 78.4926 115.353C78.4569 115.433 78.4264 115.516 78.4012 115.6C78.1842 115.897 77.9671 116.194 77.7577 116.499C77.2931 117.173 76.8819 117.885 76.4097 118.555C76.3831 118.589 76.4402 118.624 76.4669 118.589C76.9428 117.961 77.4797 117.375 77.9633 116.75C78.4469 116.126 78.9267 115.463 79.3874 114.805C79.8481 114.146 80.2784 113.514 80.7315 112.87C81.2243 112.237 81.6782 111.575 82.0909 110.886C82.1023 110.871 82.0719 110.844 82.0528 110.864Z" fill="#263238"/>
<path d="M31.3606 88.6572C31.1512 93.2493 30.1307 98.7286 32.0765 103.077C33.5996 106.481 36.8171 108.789 40.1375 110.251C47.4483 113.484 57.6797 113.906 62.8012 106.649C64.8459 103.751 65.1962 97.712 61.8035 95.5035C60.0634 94.3612 57.9958 94.1099 56.0234 93.5768C54.7954 93.2909 53.6478 92.7316 52.6661 91.9404C51.6844 91.1492 50.8939 90.1467 50.3536 89.0075C48.0043 84.2973 48.4726 80.8513 48.0271 75.7565C48.0172 75.2503 47.9016 74.7518 47.6879 74.2928C47.4741 73.8338 47.1669 73.4245 46.7858 73.0911C45.949 72.2676 44.9039 71.6871 43.7625 71.4119C42.7889 70.9875 41.725 70.8121 40.6668 70.9017C38.4126 71.1378 36.246 73.2168 34.4982 74.5114C32.7505 75.806 31.9204 77.1768 31.7833 79.412C31.5967 82.4848 31.5015 85.5729 31.3606 88.6572Z" fill="#263238"/>
<path d="M30.7946 90.8312C31.2592 86.6427 31.7999 82.4542 32.3177 78.2657C32.3177 78.2428 32.3596 78.2428 32.3558 78.2657C32.0322 81.7231 31.7542 85.1843 31.3848 88.638C31.0041 92.0268 30.4177 95.4919 30.3529 98.8922C30.2083 106.542 38.075 109.653 44.5787 109.28C44.8757 109.28 44.8681 109.737 44.5787 109.744C38.8671 109.893 32.0322 107.939 30.3034 101.721C29.3439 98.3096 30.4139 94.2582 30.7946 90.8312Z" fill="#263238"/>
<path d="M47.6583 75.3525C47.6583 75.2725 47.7802 75.2763 47.784 75.3525C47.9744 79.541 47.784 84.4911 50.1981 88.1427C51.378 89.9475 53.0774 91.3522 55.072 92.1713C56.6522 92.8148 58.3276 92.8719 59.9764 93.1956C66.4495 94.4635 66.499 103.183 61.8041 106.584C61.7051 106.656 61.5794 106.488 61.6746 106.412C64.9798 103.781 66.0688 98.9948 63.3767 95.484C61.2139 92.6663 57.0635 93.5802 54.1163 92.0571C48.0087 88.889 47.5479 81.4601 47.6583 75.3525Z" fill="#263238"/>
<path d="M41.0486 93.6217C43.8435 97.6351 53.3895 108.662 60.015 110.17C63.6666 111.004 81.3041 113.471 83.722 111.271C86.555 108.693 85.2451 98.983 82.9909 98.8955C76.1179 98.6251 63.4039 99.9692 60.2282 99.2762C58.7927 98.9564 51.1772 94.0444 43.0439 90.1148C39.9672 88.6222 39.2438 91.0325 41.0486 93.6217Z" fill="#D3766A"/>
<path d="M47.872 103.24L50.5374 93.42C50.5374 93.42 46.0633 90.9373 43.3941 89.9131C39.8605 88.5575 38.5278 89.5323 40.6944 93.6523C42.1489 96.3977 47.872 103.24 47.872 103.24Z" fill="#EBEBEB"/>
<path d="M47.2121 101.992C47.5015 100.537 47.8099 99.0862 48.1831 97.6507C48.3697 96.9349 48.5639 96.219 48.7771 95.5108C48.9903 94.8025 49.2683 94.1095 49.4625 93.3975C49.4625 93.3594 49.5387 93.3784 49.5234 93.3975C49.2912 94.0981 49.1427 94.8368 48.9523 95.5488C48.7619 96.2609 48.5715 96.9767 48.3735 97.6926C47.9927 99.1243 47.6119 100.556 47.2692 101.992C47.2616 102.052 47.2045 102.033 47.2121 101.992Z" fill="#263238"/>
<path d="M50.1223 94.9663L47.8719 103.244C47.8719 103.244 42.1603 96.3904 40.6981 93.6527C40.0317 92.3847 39.6929 91.4137 39.6548 90.7207L50.1223 94.9663Z" fill="#263238"/>
<path d="M26.6804 120.802C27.56 121.087 52.5121 113.864 52.5121 113.864L49.5649 105.201C49.5649 105.201 51.0233 102.414 50.3265 99.7333C49.4241 96.1541 42.7948 90.2673 42.2769 89.9208C40.2055 88.5462 38.2445 88.5462 36.5044 89.4791C29.2963 93.3135 26.6804 120.802 26.6804 120.802Z" fill="#EBEBEB"/>
<path d="M45.7202 93.0393C46.3637 93.8009 47.0529 94.5015 47.7155 95.2326C47.407 94.6881 47.0986 94.1398 46.7711 93.6029C47.2565 94.232 47.6798 94.9066 48.0353 95.6172C48.5335 96.1712 48.9928 96.759 49.4099 97.3764C49.9268 98.1093 50.3132 98.926 50.5522 99.7905C50.759 100.664 50.785 101.572 50.6284 102.456C50.4378 103.474 50.1562 104.473 49.7869 105.441C49.7412 105.571 49.5584 105.487 49.5927 105.361C50.061 103.671 50.5941 101.885 50.2171 100.118C49.8402 98.3511 48.7512 96.8966 47.6888 95.5068C47.0638 94.6577 46.3859 93.8489 45.6593 93.085C45.644 93.0508 45.6897 93.0089 45.7202 93.0393Z" fill="#263238"/>
<path d="M41.5631 104.577C42.6362 104.37 43.7231 104.243 44.8149 104.196C45.3556 104.196 45.8963 104.196 46.437 104.223C46.7074 104.223 46.9777 104.223 47.2481 104.223C47.5306 104.232 47.8132 104.206 48.0896 104.147C48.1124 104.147 48.1239 104.177 48.0896 104.185C47.8403 104.269 47.586 104.336 47.328 104.387C47.076 104.426 46.8216 104.449 46.5665 104.455C46.0144 104.455 45.4661 104.455 44.9139 104.478C43.8059 104.501 42.694 104.524 41.5898 104.631C41.5212 104.672 41.5136 104.585 41.5631 104.577Z" fill="#263238"/>
<path d="M39.2367 106.23C40.0732 105.898 40.9274 105.613 41.7955 105.377C42.2334 105.259 42.6713 105.171 43.113 105.091L43.7527 104.988C43.9849 104.954 44.2248 104.95 44.4571 104.912C44.4838 104.912 44.4952 104.946 44.4571 104.95C44.2363 104.992 44.023 105.072 43.8098 105.125L43.1549 105.289C42.7208 105.399 42.2867 105.518 41.8488 105.624C40.9768 105.837 40.1087 106.058 39.2443 106.302C39.2363 106.3 39.2291 106.296 39.2236 106.29C39.2181 106.284 39.2147 106.277 39.2138 106.269C39.213 106.26 39.2147 106.252 39.2189 106.245C39.223 106.238 39.2292 106.233 39.2367 106.23Z" fill="#263238"/>
<path d="M38.0702 89.9666C38.1692 90.4197 40.2825 93.3936 42.3463 93.3098C43.0165 93.287 43.0545 89.6163 43.0545 89.6163L43.1193 89.346L44.0255 85.5573L38.9612 82.2407C38.9612 82.2407 38.0283 89.7724 38.0702 89.9666Z" fill="#D3766A"/>
<path d="M44.0259 85.5535L43.1197 89.3612C42.0994 88.9611 41.1744 88.3514 40.4044 87.5716C39.6344 86.7918 39.0365 85.8591 38.6494 84.8338C38.8055 83.5277 38.9388 82.4425 38.9578 82.2826C38.9587 82.275 38.9587 82.2674 38.9578 82.2598L39.6013 82.6405L44.0259 85.5535Z" fill="#263238"/>
<path d="M48.9338 78.5779C50.6206 85.2034 46.8434 86.955 45.4155 87.3357C44.117 87.6632 39.662 88.6189 37.3012 82.2067C34.9404 75.7945 37.4877 72.9158 40.4121 72.0058C43.3364 71.0957 47.2508 71.9563 48.9338 78.5779Z" fill="#D3766A"/>
<path d="M47.6623 77.7549C47.5024 77.7549 47.3501 77.7549 47.1901 77.7549C47.0228 77.7734 46.8541 77.7359 46.7104 77.6483C46.6709 77.6118 46.6447 77.5632 46.6357 77.5101C46.6268 77.4571 46.6356 77.4026 46.6609 77.3551C46.7231 77.2683 46.8075 77.1998 46.9054 77.1569C47.0032 77.114 47.1108 77.0983 47.2168 77.1114C47.4376 77.1038 47.6534 77.1784 47.8222 77.3209C47.855 77.3559 47.8774 77.3994 47.8869 77.4464C47.8964 77.4934 47.8926 77.5422 47.876 77.5872C47.8594 77.6322 47.8307 77.6717 47.7929 77.7013C47.7552 77.731 47.71 77.7495 47.6623 77.7549Z" fill="#263238"/>
<path d="M43.2068 79.1488C43.3629 79.0993 43.4962 79.0308 43.6447 78.9699C43.8065 78.9267 43.9504 78.8334 44.0559 78.7033C44.0801 78.6553 44.0879 78.6007 44.0783 78.5478C44.0687 78.4949 44.0421 78.4466 44.0026 78.4101C43.9133 78.3506 43.8098 78.3161 43.7026 78.31C43.5955 78.304 43.4887 78.3267 43.3933 78.3759C43.1846 78.4457 43.0094 78.591 42.9022 78.7833C42.8792 78.8284 42.87 78.8793 42.8757 78.9296C42.8813 78.98 42.9016 79.0275 42.934 79.0664C42.9665 79.1053 43.0096 79.1339 43.058 79.1485C43.1065 79.1632 43.1582 79.1633 43.2068 79.1488Z" fill="#263238"/>
<path d="M44.3419 79.9829C44.3419 79.9829 44.3114 80.0096 44.3152 80.0286C44.4257 80.4817 44.4714 81.0186 44.0906 81.2547C44.0906 81.2547 44.0906 81.2852 44.0906 81.2775C44.5894 81.1062 44.5018 80.3941 44.3419 79.9829Z" fill="#263238"/>
<path d="M43.8383 79.5905C43.0767 79.6857 43.3356 81.1669 44.0287 81.0794C44.7217 80.9918 44.4627 79.5106 43.8383 79.5905Z" fill="#263238"/>
<path d="M43.5618 79.716C43.4437 79.8188 43.3409 79.9902 43.181 80.0321C43.0211 80.074 42.8421 79.9445 42.6974 79.815C42.6974 79.815 42.6746 79.815 42.6746 79.8379C42.7203 80.1235 42.8764 80.3938 43.1886 80.3862C43.5008 80.3786 43.6303 80.0968 43.6532 79.7998C43.6646 79.7427 43.6075 79.6742 43.5618 79.716Z" fill="#263238"/>
<path d="M46.9767 79.4077C46.9767 79.4077 47.0148 79.4268 47.0186 79.4458C47.0757 79.9065 47.2204 80.4244 47.6583 80.512V80.5386C47.1404 80.5272 46.9576 79.838 46.9767 79.4077Z" fill="#263238"/>
<path d="M47.3123 78.8439C48.0434 78.6726 48.3328 80.1462 47.655 80.3061C46.9772 80.466 46.6993 78.9886 47.3123 78.8439Z" fill="#263238"/>
<path d="M47.6393 78.8824C47.7687 78.9357 47.9134 79.0575 48.0543 79.0385C48.1952 79.0195 48.3056 78.8329 48.378 78.6577C48.378 78.6577 48.4008 78.6577 48.4046 78.6577C48.4656 78.9357 48.4313 79.2479 48.1724 79.3545C47.9134 79.4611 47.704 79.2479 47.5822 78.9738C47.5479 78.9471 47.586 78.8595 47.6393 78.8824Z" fill="#263238"/>
<path d="M44.9554 84.0567C45.0772 84.1557 45.1991 84.2928 45.3704 84.2928C45.5427 84.2736 45.7089 84.2178 45.8578 84.1291C45.8578 84.1291 45.8883 84.1291 45.8807 84.1519C45.8224 84.2492 45.7389 84.3288 45.639 84.3825C45.5391 84.4361 45.4266 84.4617 45.3133 84.4565C45.2197 84.4371 45.1337 84.3906 45.0661 84.323C44.9984 84.2553 44.952 84.1694 44.9325 84.0758C44.9021 84.0529 44.9363 84.0415 44.9554 84.0567Z" fill="#263238"/>
<path d="M46.6459 81.9545C46.7438 82.2828 46.8251 82.6158 46.8896 82.9522C46.8896 82.9826 46.8173 83.0093 46.7107 83.0321C46.4402 83.1241 46.1496 83.1397 45.8708 83.0773C45.592 83.0148 45.3358 82.8766 45.1305 82.678C45.1248 82.672 45.1215 82.6643 45.1211 82.656C45.1208 82.6478 45.1233 82.6398 45.1284 82.6333C45.1335 82.6268 45.1407 82.6224 45.1488 82.6208C45.1568 82.6193 45.1652 82.6206 45.1723 82.6247C45.6268 82.8474 46.1416 82.9156 46.6383 82.8189C46.6383 82.7275 46.2576 81.6766 46.3147 81.6766C46.5701 81.6645 46.826 81.685 47.0762 81.7375C46.6954 80.321 46.1129 78.9769 45.7664 77.549C45.7655 77.5394 45.7676 77.5297 45.7726 77.5214C45.7775 77.5131 45.785 77.5065 45.7938 77.5027C45.8027 77.4989 45.8126 77.498 45.822 77.5002C45.8315 77.5023 45.84 77.5074 45.8463 77.5147C46.528 78.9346 47.0651 80.4195 47.4494 81.9469C47.4875 82.1373 46.7868 81.9926 46.6459 81.9545Z" fill="#263238"/>
<path d="M46.6758 82.9069C46.5446 83.2075 46.3388 83.4696 46.078 83.6684C45.9331 83.7737 45.7583 83.8297 45.5792 83.8284C45.1984 83.8284 45.0956 83.4895 45.0918 83.1849C45.0914 83.0234 45.1093 82.8625 45.1451 82.7051C45.6209 82.9333 46.1571 83.004 46.6758 82.9069Z" fill="#263238"/>
<path d="M46.078 83.6649C45.9331 83.7702 45.7583 83.8263 45.5792 83.8249C45.1984 83.8249 45.0956 83.486 45.0918 83.1814C45.2866 83.1402 45.4895 83.1655 45.6683 83.2531C45.847 83.3408 45.9913 83.4857 46.078 83.6649Z" fill="#FF9CBD"/>
<path d="M37.7741 82.6862C38.49 82.4501 39.8417 79.9523 38.9621 76.4377C38.9621 76.4377 39.5333 79.6476 39.4191 80.1693C39.3048 80.691 40.1806 78.768 39.5066 75.9237C40.5643 76.3217 41.6734 76.5666 42.8003 76.6509C44.232 76.6509 45.0469 76.4377 45.1154 76.3159C45.184 76.194 43.0593 76.0988 42.3662 75.6305C42.3662 75.6305 46.3491 76.3273 48.0169 76.0112C48.2111 75.977 47.3963 72.0322 44.43 71.0612C41.4638 70.0902 37.9378 72.9384 37.142 74.2673C37.142 74.2673 35.9235 74.7851 35.0516 77.0203C34.1796 79.2554 37.0088 82.9413 37.7741 82.6862Z" fill="#263238"/>
<path d="M38.4821 82.431C38.4821 82.431 36.6658 80.569 35.8167 81.2506C34.9676 81.9322 36.5554 84.7994 37.7434 85.0317C37.8938 85.0742 38.0513 85.0854 38.2062 85.0646C38.361 85.0438 38.51 84.9915 38.6438 84.9108C38.7777 84.8302 38.8936 84.7229 38.9843 84.5957C39.075 84.4685 39.1387 84.324 39.1713 84.1711L38.4821 82.431Z" fill="#D3766A"/>
<path d="M36.2772 82.0731C36.2582 82.0731 36.2582 82.0998 36.2772 82.1036C37.1149 82.2902 37.648 82.9527 38.063 83.6609C38.003 83.591 37.9285 83.5348 37.8447 83.4963C37.7609 83.4577 37.6698 83.4378 37.5776 83.4378C37.4853 83.4378 37.3942 83.4577 37.3104 83.4963C37.2266 83.5348 37.1521 83.591 37.0921 83.6609C37.073 83.6609 37.0921 83.7066 37.1225 83.699C37.2531 83.6316 37.4016 83.6068 37.547 83.628C37.6924 83.6491 37.8276 83.7152 37.9336 83.8171C38.1111 83.9798 38.2707 84.161 38.4096 84.3578C38.4591 84.4225 38.5771 84.3578 38.539 84.2854C38.3791 83.2611 37.37 81.9855 36.2772 82.0731Z" fill="#263238"/>
<path d="M32.9408 95.5833C30.9341 106.965 32.8761 115.49 34.8066 116.549C40.0118 119.389 52.5126 113.624 56.0386 112.478C57.4474 112.018 50.9743 101.112 49.5121 101.79C46.0851 103.374 41.2836 106.062 41.0894 106.039C40.7086 106.001 40.2517 103.096 38.264 94.6161C36.6534 87.785 33.7633 90.9302 32.9408 95.5833Z" fill="#D3766A"/>
<path d="M67.402 96.3939C67.7599 97.8256 64.1578 98.4044 64.1578 98.4044C64.7566 98.6197 65.2616 99.0371 65.5857 99.5848C66.1111 100.575 64.7861 101.828 64.7861 101.828C65.3603 102.179 65.8154 102.695 66.0921 103.309C66.4995 104.306 65.3306 105.765 65.3306 105.765C65.6798 106.379 65.7961 107.098 65.658 107.79C65.2163 109.626 62.4024 110.349 60.7498 111.141C58.9792 111.99 56.0473 112.303 54.7184 112.9L48.9573 102.345C48.9573 102.345 54.5242 96.451 57.7151 95.5372C59.4781 95.0193 66.8575 94.2083 67.402 96.3939Z" fill="#D3766A"/>
<path d="M64.1183 98.3742C62.1154 98.2866 60.0935 98.6788 58.1478 99.0786C58.141 99.081 58.1352 99.0853 58.1311 99.0911C58.127 99.0969 58.1248 99.1039 58.1248 99.111C58.1248 99.1181 58.127 99.125 58.1311 99.1308C58.1352 99.1366 58.141 99.141 58.1478 99.1434C60.0783 98.7245 62.1687 98.8121 64.1107 98.4694C64.1213 98.4674 64.131 98.4619 64.1383 98.4538C64.1456 98.4458 64.15 98.4355 64.1508 98.4247C64.1517 98.4139 64.149 98.4031 64.1431 98.3939C64.1372 98.3848 64.1285 98.3779 64.1183 98.3742Z" fill="#263238"/>
<path d="M64.683 101.699C64.2261 101.722 63.7742 101.806 63.3389 101.946C62.8705 102.068 62.406 102.198 61.9376 102.327C61.0085 102.601 60.0832 102.894 59.1694 103.214C59.1275 103.214 59.1389 103.294 59.1694 103.283C60.0947 103.012 61.0276 102.757 61.9681 102.521C62.4364 102.403 62.9086 102.293 63.3769 102.182C63.83 102.104 64.273 101.976 64.6982 101.802C64.7047 101.794 64.7095 101.785 64.7122 101.776C64.715 101.766 64.7156 101.756 64.7142 101.747C64.7128 101.737 64.7092 101.728 64.7038 101.719C64.6984 101.711 64.6913 101.704 64.683 101.699Z" fill="#263238"/>
<path d="M65.3076 105.776C64.894 105.803 64.4881 105.9 64.1081 106.066L62.8402 106.447C61.9948 106.705 61.1495 106.961 60.2966 107.189C60.2547 107.189 60.2661 107.269 60.2966 107.258C61.1647 107.029 62.0367 106.816 62.9049 106.58C63.3275 106.466 63.754 106.348 64.1767 106.226C64.58 106.158 64.9672 106.016 65.319 105.807C65.3203 105.804 65.321 105.801 65.3211 105.798C65.3212 105.795 65.3207 105.792 65.3197 105.789C65.3186 105.786 65.317 105.784 65.3149 105.782C65.3128 105.779 65.3103 105.778 65.3076 105.776Z" fill="#263238"/>
<path d="M41.074 106.039C42.4371 105.255 43.8194 104.516 45.2054 103.754L47.3034 102.665L48.3582 102.136C48.7168 101.949 49.0869 101.785 49.4662 101.645L49.3977 101.683C50.3268 100.78 51.2597 99.8856 52.2459 99.0441C52.7333 98.6215 53.2283 98.2026 53.7423 97.8104C54.249 97.405 54.7891 97.0432 55.3568 96.729C54.8218 97.0859 54.3128 97.4803 53.8337 97.9094C53.3463 98.3283 52.8627 98.7547 52.3906 99.1964C51.4539 100.08 50.5134 100.963 49.6071 101.862L49.5843 101.881L49.5386 101.9C49.2149 102.018 48.8418 102.212 48.4953 102.372L47.4329 102.89L45.3272 103.945C43.9184 104.664 42.5133 105.369 41.074 106.039Z" fill="#263238"/>
<path d="M31.0063 105.483L40.103 100.914C40.103 100.914 38.9607 95.9259 37.9441 93.2529C36.5961 89.7193 34.9702 89.3918 33.3748 93.7403C32.2857 96.6532 31.0063 105.483 31.0063 105.483Z" fill="#EBEBEB"/>
<path d="M31.4967 104.158C32.7723 103.397 34.0593 102.666 35.3768 101.988C36.0355 101.649 36.7019 101.318 37.3682 100.998C38.0346 100.678 38.739 100.43 39.4016 100.103C39.4358 100.103 39.4625 100.145 39.4244 100.16C38.7504 100.45 38.1031 100.838 37.4444 101.169C36.7856 101.5 36.1193 101.832 35.4605 102.171C34.1431 102.845 32.8218 103.515 31.5195 104.219C31.4853 104.234 31.4624 104.177 31.4967 104.158Z" fill="#263238"/>
<path d="M32.0957 104.92C31.7454 105.133 31.3913 105.331 31.0409 105.533L30.9153 105.605L30.9343 105.456C31.0714 104.196 31.2504 102.947 31.4712 101.702C31.6921 100.457 31.9472 99.2155 32.2861 97.9971C32.2099 98.6253 32.1261 99.2498 32.031 99.8743C31.9358 100.499 31.8482 101.123 31.7454 101.748C31.5474 102.993 31.3227 104.238 31.079 105.479L30.9724 105.399C31.3456 105.255 31.7149 105.087 32.0957 104.92Z" fill="#263238"/>
<path d="M31.7868 99.2651C31.8039 99.5568 31.8039 99.8492 31.7868 100.141C31.778 100.433 31.7538 100.724 31.7144 101.013C31.6661 100.43 31.684 99.8438 31.7677 99.2651H31.7868Z" fill="#263238"/>
<path d="M38.995 101.493C39.3454 101.28 39.7063 101.086 40.0764 100.91C39.9279 100.324 39.7718 99.745 39.6309 99.1586C39.5585 98.8654 39.4938 98.5722 39.4329 98.279C39.3719 97.9858 39.2691 97.586 39.2082 97.3004C39.2082 97.2547 39.2577 97.2395 39.2691 97.2814C39.3872 97.6622 39.4595 97.9249 39.5585 98.2409C39.6575 98.557 39.7261 98.8121 39.8022 99.0977C39.9583 99.7031 40.1525 100.343 40.282 100.956C39.8718 101.175 39.4468 101.366 39.0102 101.527C39.0059 101.528 39.0013 101.528 38.9973 101.526C38.9932 101.524 38.99 101.52 38.9882 101.516C38.9864 101.512 38.9861 101.508 38.9873 101.503C38.9886 101.499 38.9913 101.495 38.995 101.493Z" fill="#263238"/>
<path d="M39.7221 97.6851C39.783 98.0442 39.783 98.4111 39.7221 98.7703C39.6561 98.4115 39.6561 98.0438 39.7221 97.6851Z" fill="#263238"/>
<path d="M75.4934 111.922H49.0144V113.11H75.4934V111.922Z" fill="#C7C7C7"/>
<path d="M54.6789 111.922L53.7727 113.11H75.4921V111.922H54.6789Z" fill="#A6A6A6"/>
<path d="M55.8147 113.106H81.6198L83.7673 95.583H57.9623L55.8147 113.106Z" fill="#C7C7C7"/>
<path d="M68.2196 104.345C68.2129 104.55 68.2479 104.755 68.3227 104.947C68.3974 105.139 68.5102 105.314 68.6544 105.461C68.7985 105.608 68.971 105.724 69.1613 105.802C69.3516 105.881 69.5558 105.92 69.7617 105.917C70.1807 105.915 70.5823 105.75 70.8811 105.456C71.1798 105.162 71.352 104.764 71.3609 104.345C71.3671 104.141 71.3322 103.938 71.2584 103.748C71.1846 103.558 71.0734 103.384 70.9313 103.238C70.7893 103.092 70.6193 102.975 70.4315 102.896C70.2436 102.817 70.0418 102.776 69.8378 102.776C69.4159 102.772 69.0094 102.934 68.7065 103.228C68.4035 103.522 68.2286 103.923 68.2196 104.345Z" fill="white"/>
<path d="M83.5566 97.2773C84.5275 98.7776 86.9302 100.533 87.2615 101.82C87.355 102.135 87.3443 102.471 87.2311 102.779C87.1179 103.087 86.9082 103.35 86.6332 103.53C86.6332 103.53 88.023 104.009 88.1297 105.228C88.1868 105.852 87.231 106.492 87.231 106.492C87.231 106.492 88.3315 106.922 88.3734 108.015C88.3962 108.883 87.4367 109.394 87.4367 109.394C87.4367 109.394 88.2972 110.3 88.0383 111.191C87.509 113 80.122 113.974 78.6217 111.404C77.9211 110.208 79.7412 110.068 79.7412 110.068C79.7412 110.068 77.0758 109.637 76.8359 108.118C76.596 106.599 78.9682 106.561 78.9682 106.561C78.9682 106.561 76.3942 106.123 76.3028 104.523C76.2076 102.859 78.5875 103.229 78.5875 103.229C78.5875 103.229 76.7978 102.33 77.0111 101.089C77.3576 99.0441 81.5804 101.218 83.1453 100.621L83.5566 97.2773Z" fill="#D3766A"/>
<path d="M87.2861 109.488C87.2911 109.488 87.296 109.49 87.2996 109.494C87.3031 109.497 87.3051 109.502 87.3051 109.507C87.3051 109.512 87.3031 109.517 87.2996 109.521C87.296 109.524 87.2911 109.526 87.2861 109.526C84.8451 110.484 82.1704 110.677 79.6173 110.078C79.5374 110.056 79.5335 109.919 79.6173 109.922C82.1811 110.152 84.7646 110.006 87.2861 109.488Z" fill="#263238"/>
<path d="M87.2701 106.504C87.3005 106.504 87.3082 106.542 87.2701 106.554C84.8407 107.483 81.608 107.696 78.8664 106.637C78.7712 106.599 78.7255 106.474 78.8359 106.508C80.7246 107.083 84.9169 107.022 87.2701 106.504Z" fill="#263238"/>
<path d="M78.3901 103.081C81.0556 104.01 83.759 103.991 86.5273 103.572C86.5615 103.572 86.5654 103.618 86.5273 103.633C85.2288 104.204 83.4354 104.288 82.0341 104.235C80.734 104.211 79.4629 103.846 78.3483 103.176C78.3216 103.149 78.3406 103.062 78.3901 103.081Z" fill="#263238"/>
<path d="M135.906 147.357C135.544 148.335 117.808 170.386 116.601 170.797C116.144 170.957 112.793 168.562 108.799 165.55C107.942 164.899 107.058 164.225 106.164 163.532C100.357 159.047 94.3025 154.15 94.3025 154.15L106.106 139.368L117.644 149.154L120.176 151.302C120.176 151.302 130.743 145.898 132.117 145.59C133.492 145.282 136.268 146.382 135.906 147.357Z" fill="#D3766A"/>
<path d="M135.911 147.361C135.53 148.336 117.809 170.386 116.602 170.801C116.202 170.942 113.582 169.126 110.266 166.655C113.651 164.191 126.498 152.619 128.223 149.485C129.129 147.837 127.804 147.848 126.182 148.305C128.847 146.999 131.494 145.735 132.137 145.586C133.508 145.282 136.269 146.382 135.911 147.361Z" fill="#263238"/>
<path d="M117.042 146.923L104.739 163.524L63.2347 134.715L59.2175 131.954C59.2175 131.954 58.0752 132.716 56.377 133.66C54.0085 134.97 50.5359 136.63 47.463 137.087C42.3074 137.849 33.7019 137.769 29.3572 131.958C25.698 127.069 27.6856 120.687 27.6856 120.687L33.3439 118.246C33.3439 118.246 46.7358 107.09 55.4288 106.755C59.1109 106.606 64.476 109.42 69.4451 112.318C74.4142 115.215 117.042 146.923 117.042 146.923Z" fill="#37474F"/>
<path d="M59.2195 131.955C59.2195 131.955 58.0772 132.716 56.379 133.661C53.3632 130.051 46.9776 123.49 46.7834 123.258L59.2195 131.955Z" fill="#263238"/>
<path d="M38.2537 114.496C37.4541 115.052 36.6773 115.638 35.8891 116.213C35.1009 116.788 34.3089 117.302 33.5702 117.915C32.8315 118.528 32.1081 119.206 31.3998 119.876C31.0609 120.2 30.722 120.527 30.3908 120.863C30.0424 121.185 29.7202 121.536 29.4274 121.91C29.4008 121.944 29.4541 121.986 29.4845 121.967C29.8609 121.698 30.2195 121.406 30.5583 121.091C30.9391 120.775 31.3198 120.455 31.6778 120.139C32.3974 119.526 33.1323 118.932 33.8482 118.319C34.564 117.706 35.2228 117.043 35.931 116.415C36.6393 115.787 37.4846 115.136 38.269 114.511C38.2842 114.511 38.269 114.485 38.2537 114.496Z" fill="#263238"/>
<path d="M114.155 146.329C113.355 147.19 112.632 148.119 111.87 149.029C111.109 149.939 110.381 150.86 109.643 151.778C108.169 153.625 106.68 155.456 105.23 157.322C104.434 158.346 103.646 159.378 102.907 160.441C102.873 160.49 102.949 160.543 102.987 160.501C104.575 158.754 106.033 156.892 107.499 155.053C108.965 153.213 110.442 151.374 111.897 149.489C112.689 148.469 113.508 147.452 114.235 146.382C114.254 146.34 114.182 146.291 114.155 146.329Z" fill="#263238"/>
<path d="M80.0818 146.5C78.018 144.87 75.8742 143.332 73.7343 141.805C71.5943 140.278 69.4734 138.759 67.3106 137.289C66.6899 136.867 66.0617 136.451 65.4372 136.036C64.8127 135.621 64.1616 135.237 63.5524 134.807C63.5143 134.784 63.4838 134.841 63.5181 134.867C64.0816 135.271 64.6109 135.72 65.163 136.139C65.7151 136.558 66.214 136.943 66.7432 137.335C67.7828 138.096 68.8299 138.858 69.877 139.62C71.9992 141.143 74.1379 142.653 76.2931 144.151C77.5191 144.988 78.7376 145.834 79.9904 146.633C80.0665 146.671 80.1541 146.553 80.0818 146.5Z" fill="#263238"/>
<path d="M93.3581 129.369C91.4542 127.789 89.4057 126.365 87.4028 124.903C85.3999 123.44 83.3666 121.929 81.3333 120.463C79.2999 118.997 77.3047 117.546 75.2866 116.091C73.3332 114.679 71.3874 113.243 69.3236 111.991C68.1813 111.309 67.039 110.673 65.8472 110.087C64.6929 109.496 63.4904 109.004 62.2527 108.617C62.2441 108.613 62.2345 108.613 62.2259 108.617C62.2173 108.621 62.2105 108.627 62.207 108.636C62.2034 108.645 62.2035 108.654 62.207 108.663C62.2106 108.671 62.2174 108.678 62.226 108.682C63.2465 109.249 64.3127 109.725 65.3446 110.273C66.3765 110.822 67.3627 111.385 68.3489 111.983C70.3974 113.228 72.3318 114.648 74.2737 116.034C78.3099 118.936 82.3385 121.853 86.4052 124.716C88.6898 126.315 90.9059 128.006 93.2591 129.48C93.3429 129.54 93.4266 129.426 93.3581 129.369Z" fill="#263238"/>
<path d="M87.7867 89.2989C88.8482 82.8241 84.4598 76.7148 77.985 75.6533C71.5102 74.5919 65.4009 78.9803 64.3394 85.4551C63.278 91.9299 67.6663 98.0392 74.1411 99.1006C80.6159 100.162 86.7253 95.7737 87.7867 89.2989Z" fill="#FF8800"/>
<path d="M82.979 95.0457H69.134V83.3331L76.0565 78.939L82.979 83.3331V95.0457Z" fill="#A6A6A6"/>
<path d="M82.1984 94.9281H69.9185V79.541H79.038L82.1984 82.5491V94.9281Z" fill="white"/>
<path d="M79.0376 79.541L82.198 82.5491H79.0376V79.541Z" fill="#EBEBEB"/>
<path d="M71.118 82.5952H77.9453V82.1916H71.118V82.5952Z" fill="#DBDBDB"/>
<path d="M71.118 83.6152H77.9453V83.2116H71.118V83.6152Z" fill="#DBDBDB"/>
<path d="M71.118 84.6353H77.9453V84.2316H71.118V84.6353Z" fill="#DBDBDB"/>
<path d="M71.1153 85.6597H81.1221V85.256H71.1153V85.6597Z" fill="#DBDBDB"/>
<path d="M71.1153 86.6802H81.1221V86.2766H71.1153V86.6802Z" fill="#DBDBDB"/>
<path d="M71.1153 87.7046H81.1221V87.301H71.1153V87.7046Z" fill="#DBDBDB"/>
<path d="M71.1153 88.7251H81.1221V88.3215H71.1153V88.7251Z" fill="#DBDBDB"/>
<path d="M71.1153 89.7456H81.1221V89.342H71.1153V89.7456Z" fill="#DBDBDB"/>
<path d="M71.1153 90.7695H81.1221V90.3659H71.1153V90.7695Z" fill="#DBDBDB"/>
<path d="M71.1153 91.7905H81.1221V91.3869H71.1153V91.7905Z" fill="#DBDBDB"/>
<path d="M71.1153 92.8145H81.1221V92.4108H71.1153V92.8145Z" fill="#DBDBDB"/>
<path d="M71.1153 93.835H81.1221V93.4313H71.1153V93.835Z" fill="#DBDBDB"/>
<path d="M82.9796 86.2617V95.0424H69.1384V86.2617C69.7324 86.5968 70.315 86.9509 70.9052 87.2974C71.4954 87.6439 72.078 87.998 72.6568 88.356C73.3066 88.752 73.9552 89.1531 74.6025 89.5592L76.0571 90.4693L77.5078 89.5592H77.4888H77.5117L79.4536 88.3598C80.0362 88.0019 80.6226 87.6515 81.209 87.3012C81.7954 86.9509 82.3856 86.6006 82.9796 86.2617Z" fill="#EBEBEB"/>
<path d="M82.9796 86.2617C82.4236 86.6425 81.8372 87.0233 81.2889 87.404C80.7406 87.7848 80.1466 88.1656 79.5793 88.5464C79.0119 88.9271 78.3836 89.3269 77.7858 89.7115L77.7325 89.7496L76.1371 90.7663L76.0571 90.812L75.9809 90.7663L74.3893 89.7458L74.3322 89.7115C73.7306 89.3282 73.1315 88.9398 72.5349 88.5464C71.9676 88.1656 71.3926 87.7848 70.8291 87.404C70.2655 87.0233 69.6867 86.6425 69.1384 86.2617C69.7324 86.5968 70.315 86.9509 70.9052 87.2974C71.4954 87.6439 72.078 87.998 72.6568 88.356C73.3066 88.752 73.9552 89.1531 74.6025 89.5592L76.0571 90.4693L77.5078 89.5592L79.4498 88.3598C80.0324 88.0019 80.6188 87.6515 81.2052 87.3012C81.7915 86.9509 82.3856 86.6006 82.9796 86.2617Z" fill="#DBDBDB"/>
<path d="M74.6228 89.5513L74.4057 89.7379C74.0592 90.031 73.7013 90.3128 73.3395 90.5832C72.8978 90.9221 72.4485 91.2419 71.9954 91.5618C71.5423 91.8816 71.0816 92.19 70.6132 92.487C70.1449 92.784 69.6765 93.081 69.1853 93.3476C69.608 92.9668 70.042 92.6393 70.4837 92.3043C70.9254 91.9692 71.3786 91.6455 71.8279 91.3257C72.2772 91.0058 72.7417 90.6974 73.2101 90.3966C73.5909 90.1567 73.9716 89.9244 74.3524 89.7036C74.44 89.6503 74.5314 89.6008 74.6228 89.5513Z" fill="#DBDBDB"/>
<path d="M82.9606 93.3593C82.4694 93.0928 81.9973 92.7996 81.5327 92.4988C81.0682 92.1979 80.6075 91.8895 80.1467 91.5735C79.686 91.2574 79.2443 90.9338 78.8026 90.5949C78.4447 90.3245 78.0867 90.0466 77.744 89.7534L77.5232 89.563H77.5042H77.527L77.7973 89.7191C78.1781 89.94 78.5589 90.1722 78.9397 90.4121C79.4042 90.7129 79.8649 91.0252 80.3181 91.3412C80.7712 91.6572 81.2243 91.9809 81.6622 92.3198C82.1001 92.6587 82.5266 92.9938 82.9606 93.3593Z" fill="#DBDBDB"/>
<path d="M78.8959 85.4702C79.2668 83.9048 78.2985 82.3351 76.7331 81.9641C75.1676 81.5932 73.5979 82.5616 73.227 84.127C72.8561 85.6924 73.8244 87.2621 75.3899 87.633C76.9553 88.0039 78.525 87.0356 78.8959 85.4702Z" fill="#FF8800"/>
<path d="M74.5828 85.0387C74.9989 85.3858 75.3931 85.7584 75.7632 86.1543L75.4966 86.1734C75.6413 85.9183 75.7974 85.6708 75.9574 85.4118C76.1173 85.1529 76.2772 84.9206 76.4486 84.6846C76.7838 84.2008 77.1515 83.7402 77.549 83.3062C77.3161 83.8476 77.045 84.3718 76.7379 84.8749C76.5933 85.1263 76.4295 85.3738 76.2734 85.6365C76.1173 85.8992 75.9497 86.1239 75.7746 86.3638L75.6413 86.5503L75.508 86.3828C75.171 85.9552 74.8619 85.5062 74.5828 85.0387Z" fill="white"/>
</g>
<defs>
<filter id="filter0_ddddd_856_15577" x="0" y="0.587402" width="167.445" height="180.826" filterUnits="userSpaceOnUse" color-interpolation-filters="sRGB">
<feFlood flood-opacity="0" result="BackgroundImageFix"/>
<feColorMatrix in="SourceAlpha" type="matrix" values="0 0 0 0 0 0 0 0 0 0 0 0 0 0 0 0 0 0 127 0" result="hardAlpha"/>
<feOffset dy="4"/>
<feGaussianBlur stdDeviation="2"/>
<feComposite in2="hardAlpha" operator="out"/>
<feColorMatrix type="matrix" values="0 0 0 0 0 0 0 0 0 0 0 0 0 0 0 0 0 0 0.25 0"/>
<feBlend mode="normal" in2="BackgroundImageFix" result="effect1_dropShadow_856_15577"/>
<feColorMatrix in="SourceAlpha" type="matrix" values="0 0 0 0 0 0 0 0 0 0 0 0 0 0 0 0 0 0 127 0" result="hardAlpha"/>
<feOffset dy="4"/>
<feGaussianBlur stdDeviation="2"/>
<feComposite in2="hardAlpha" operator="out"/>
<feColorMatrix type="matrix" values="0 0 0 0 0 0 0 0 0 0 0 0 0 0 0 0 0 0 0.25 0"/>
<feBlend mode="normal" in2="effect1_dropShadow_856_15577" result="effect2_dropShadow_856_15577"/>
<feColorMatrix in="SourceAlpha" type="matrix" values="0 0 0 0 0 0 0 0 0 0 0 0 0 0 0 0 0 0 127 0" result="hardAlpha"/>
<feOffset dy="4"/>
<feGaussianBlur stdDeviation="2"/>
<feComposite in2="hardAlpha" operator="out"/>
<feColorMatrix type="matrix" values="0 0 0 0 0 0 0 0 0 0 0 0 0 0 0 0 0 0 0.25 0"/>
<feBlend mode="normal" in2="effect2_dropShadow_856_15577" result="effect3_dropShadow_856_15577"/>
<feColorMatrix in="SourceAlpha" type="matrix" values="0 0 0 0 0 0 0 0 0 0 0 0 0 0 0 0 0 0 127 0" result="hardAlpha"/>
<feOffset dy="4"/>
<feGaussianBlur stdDeviation="2"/>
<feComposite in2="hardAlpha" operator="out"/>
<feColorMatrix type="matrix" values="0 0 0 0 0 0 0 0 0 0 0 0 0 0 0 0 0 0 0.25 0"/>
<feBlend mode="normal" in2="effect3_dropShadow_856_15577" result="effect4_dropShadow_856_15577"/>
<feColorMatrix in="SourceAlpha" type="matrix" values="0 0 0 0 0 0 0 0 0 0 0 0 0 0 0 0 0 0 127 0" result="hardAlpha"/>
<feOffset dy="4"/>
<feGaussianBlur stdDeviation="2"/>
<feComposite in2="hardAlpha" operator="out"/>
<feColorMatrix type="matrix" values="0 0 0 0 0 0 0 0 0 0 0 0 0 0 0 0 0 0 0.25 0"/>
<feBlend mode="normal" in2="effect4_dropShadow_856_15577" result="effect5_dropShadow_856_15577"/>
<feBlend mode="normal" in="SourceGraphic" in2="effect5_dropShadow_856_15577" result="shape"/>
</filter>
</defs>
</svg>
